<?xml version="1.0" encoding="utf-8"?>
<!-- Generator: Adobe Illustrator 16.0.0, SVG Export Plug-In . SVG Version: 6.00 Build 0)  -->
<!DOCTYPE svg PUBLIC "-//W3C//DTD SVG 1.1//EN" "http://www.w3.org/Graphics/SVG/1.1/DTD/svg11.dtd">
<svg version="1.1" id="Capa_1" xmlns="http://www.w3.org/2000/svg" xmlns:xlink="http://www.w3.org/1999/xlink" x="0px" y="0px"
	 width="512px" height="512px" viewBox="0 0 512 512" enable-background="new 0 0 512 512" xml:space="preserve">
<g>
	<path fill="#515151" d="M363.478,0H148.522c-20.719,0-37.589,16.871-37.589,37.589v436.813c0,20.728,16.87,37.598,37.589,37.598
		h214.946c20.728,0,37.598-16.87,37.598-37.589V37.589C401.066,16.871,384.196,0,363.478,0z M128,68.267h256v358.267H128V68.267z
		 M148.522,17.066h214.946c11.324,0,20.531,9.208,20.531,20.523V51.2H128V37.589C128,26.274,137.208,17.066,148.522,17.066z
		 M363.478,494.934H148.522c-11.315,0-20.522-9.208-20.522-20.522V443.6h256v30.812C384,485.726,374.793,494.934,363.478,494.934z"
		/>
	<path fill="#515151" d="M304.367,42.667H338.5c4.719,0,8.533-3.814,8.533-8.533c0-4.719-3.814-8.533-8.533-8.533h-34.133
		c-4.719,0-8.533,3.814-8.533,8.533C295.834,38.853,299.648,42.667,304.367,42.667z"/>
	<path fill="#515151" d="M364.1,42.667h8.533c4.72,0,8.533-3.814,8.533-8.533c0-4.719-3.813-8.533-8.533-8.533H364.1
		c-4.719,0-8.533,3.814-8.533,8.533C355.566,38.853,359.381,42.667,364.1,42.667z"/>
	<g>
		<g>
			<g>
				<path d="M256,199.112c-10.217,0-18.525,8.308-18.525,18.525s8.308,18.525,18.525,18.525c10.217,0,18.525-8.308,18.525-18.525
					S266.217,199.112,256,199.112z M256,226.899c-5.105,0-9.263-4.156-9.263-9.263c0-5.105,4.158-9.263,9.263-9.263
					s9.263,4.156,9.263,9.263C265.263,222.744,261.105,226.899,256,226.899z"/>
				<path d="M200.425,199.112c-10.217,0-18.526,8.308-18.526,18.525s8.309,18.525,18.526,18.525s18.525-8.308,18.525-18.525
					S210.641,199.112,200.425,199.112z M200.425,226.899c-5.107,0-9.263-4.156-9.263-9.263c0-5.105,4.156-9.263,9.263-9.263
					c5.106,0,9.262,4.156,9.262,9.263C209.687,222.744,205.531,226.899,200.425,226.899z"/>
				<path d="M311.575,236.162c10.218,0,18.526-8.308,18.526-18.525c0-10.217-8.309-18.525-18.526-18.525
					c-10.216,0-18.525,8.308-18.525,18.525S301.358,236.162,311.575,236.162z M311.575,208.374c5.105,0,9.263,4.156,9.263,9.263
					c0,5.105-4.157,9.263-9.263,9.263s-9.262-4.156-9.262-9.263C302.313,212.531,306.47,208.374,311.575,208.374z"/>
				<path d="M256,254.687c-10.217,0-18.525,8.307-18.525,18.526c0,10.217,8.308,18.524,18.525,18.524
					c10.217,0,18.525-8.308,18.525-18.524C274.525,262.995,266.217,254.687,256,254.687z M256,282.475
					c-5.105,0-9.263-4.156-9.263-9.262c0-5.107,4.158-9.263,9.263-9.263s9.263,4.155,9.263,9.263
					C265.263,278.318,261.105,282.475,256,282.475z"/>
				<path d="M200.425,254.687c-10.217,0-18.526,8.307-18.526,18.526c0,10.217,8.309,18.524,18.526,18.524
					s18.525-8.308,18.525-18.524C218.95,262.995,210.641,254.687,200.425,254.687z M200.425,282.475
					c-5.107,0-9.263-4.156-9.263-9.262c0-5.107,4.156-9.263,9.263-9.263c5.106,0,9.262,4.155,9.262,9.263
					C209.687,278.318,205.531,282.475,200.425,282.475z"/>
				<path d="M311.575,254.687c-10.217,0-18.525,8.307-18.525,18.526c0,10.217,8.309,18.524,18.525,18.524
					c10.218,0,18.526-8.308,18.526-18.524C330.102,262.995,321.793,254.687,311.575,254.687z M311.575,282.475
					c-5.105,0-9.262-4.156-9.262-9.262c0-5.107,4.156-9.263,9.262-9.263s9.263,4.155,9.263,9.263
					C320.838,278.318,316.681,282.475,311.575,282.475z"/>
				<path d="M256,310.264c-10.217,0-18.525,8.308-18.525,18.523c0,10.219,8.308,18.525,18.525,18.525
					c10.217,0,18.525-8.307,18.525-18.525C274.525,318.571,266.217,310.264,256,310.264z M256,338.05
					c-5.105,0-9.263-4.156-9.263-9.263s4.158-9.262,9.263-9.262s9.263,4.155,9.263,9.262S261.105,338.05,256,338.05z"/>
				<path d="M256,365.838c-10.217,0-18.525,8.308-18.525,18.525c0,10.217,8.308,18.525,18.525,18.525
					c10.217,0,18.525-8.309,18.525-18.525C274.525,374.146,266.217,365.838,256,365.838z M256,393.625
					c-5.105,0-9.263-4.156-9.263-9.262s4.158-9.262,9.263-9.262s9.263,4.154,9.263,9.262
					C265.263,389.469,261.105,393.625,256,393.625z"/>
				<path d="M200.425,310.264c-10.217,0-18.526,8.308-18.526,18.523c0,10.219,8.309,18.525,18.526,18.525
					s18.525-8.307,18.525-18.525C218.95,318.571,210.641,310.264,200.425,310.264z M200.425,338.05
					c-5.107,0-9.263-4.156-9.263-9.263s4.156-9.262,9.263-9.262c5.106,0,9.262,4.155,9.262,9.262S205.531,338.05,200.425,338.05z"/>
				<path d="M311.575,310.264c-10.217,0-18.525,8.308-18.525,18.523c0,10.219,8.309,18.525,18.525,18.525
					c10.218,0,18.526-8.307,18.526-18.525C330.102,318.571,321.793,310.264,311.575,310.264z M311.575,338.05
					c-5.105,0-9.262-4.156-9.262-9.263s4.156-9.262,9.262-9.262s9.263,4.155,9.263,9.262S316.681,338.05,311.575,338.05z"/>
			</g>
		</g>
	</g>
</g>
</svg>
