<?xml version="1.0" encoding="utf-8"?>
<!-- Generator: Adobe Illustrator 18.0.0, SVG Export Plug-In . SVG Version: 6.00 Build 0)  -->
<!DOCTYPE svg PUBLIC "-//W3C//DTD SVG 1.1//EN" "http://www.w3.org/Graphics/SVG/1.1/DTD/svg11.dtd">
<svg version="1.1" id="Capa_1" xmlns="http://www.w3.org/2000/svg" xmlns:xlink="http://www.w3.org/1999/xlink" x="0px" y="0px"
	 viewBox="0 0 512 512" enable-background="new 0 0 512 512" xml:space="preserve">
<path fill="#626366" d="M346.5,363.9c-4.5,4.5-8.5,9.5-11.8,14.8l-150-91c4-9.9,6.2-20.7,6.2-32.1c0-11.3-2.2-22.1-6.2-32.1
	l150-90.3c15.4,24.2,42.4,40.3,73.2,40.3c47.9,0,86.8-38.9,86.8-86.8S455.7,0,407.9,0c-47.9,0-86.8,38.9-86.8,86.8
	c0,10.9,2.1,21.3,5.8,30.9l-150.2,90.5c-15.5-23.6-42.2-39.3-72.6-39.3c-47.9,0-86.8,38.9-86.8,86.8s38.9,86.8,86.8,86.8
	c30.3,0,57-15.7,72.6-39.3l150.2,91.2c-3.7,9.8-5.8,20.2-5.8,31c0,23.2,9,45,25.4,61.4c16.9,16.9,39.1,25.4,61.4,25.4
	c22.2,0,44.5-8.5,61.4-25.4c16.4-16.4,25.4-38.2,25.4-61.4c0-23.2-9-45-25.4-61.4C435.4,330,380.4,330,346.5,363.9z M407.9,17.4
	c38.3,0,69.4,31.1,69.4,69.4c0,38.3-31.1,69.4-69.4,69.4c-38.3,0-69.4-31.1-69.4-69.4C338.5,48.5,369.6,17.4,407.9,17.4z
	 M104.9,186.6c37.7,0,68.4,30.7,68.4,68.4c0,37.7-30.7,68.4-68.4,68.4c-37.7,0-68.4-30.7-68.4-68.4
	C36.5,217.3,67.1,186.6,104.9,186.6z M407.9,354.6c38.8,0,70.4,31.6,70.4,70.4c0,38.8-31.6,70.4-70.4,70.4s-70.4-31.6-70.4-70.4
	C337.5,386.2,369,354.6,407.9,354.6z"/>
</svg>
